<?xml version="1.0" encoding="UTF-8" standalone="no"?>
<!DOCTYPE svg PUBLIC "-//W3C//DTD SVG 1.1//EN" "http://www.w3.org/Graphics/SVG/1.1/DTD/svg11.dtd">
<svg version="1.1" xmlns="http://www.w3.org/2000/svg" xmlns:xlink="http://www.w3.org/1999/xlink" preserveAspectRatio="xMidYMid meet" viewBox="0 0 640 640" width="640" height="640"><defs><path d="M341.76 424.29L292.57 338.28L130 71.66L308.07 482.77L312.49 489.65" id="cUqrWe4Gx"></path><path d="M310.77 489.65L315.93 458.69L353.81 379.56C302.99 351.06 271.23 333.24 258.52 326.12C256.91 325.21 256.25 323.23 257 321.54C263.27 307.34 280.73 267.86 287 253.69C287.87 251.73 287.69 249.47 286.53 247.67C277.61 233.8 252.6 194.94 243.65 181.03C242.5 179.24 241.77 177.21 241.51 175.1C240.76 168.94 238.88 153.55 235.88 128.92C242.59 87.51 246.79 61.64 248.47 51.28C248.68 50 249.31 48.83 250.28 47.95C256.18 42.6 266.25 33.45 270.61 29.49C276.66 24 283.77 19.8 291.5 17.16C301.9 13.61 328.14 4.66 340.22 0.53C342.33 -0.19 344.62 -0.17 346.72 0.57C358.28 4.69 382.38 13.27 392.1 16.73C400.29 19.65 407.71 24.38 413.81 30.56C419.37 36.2 432.55 49.57 439.55 56.67C440.88 58.02 441.69 59.79 441.83 61.68C443.51 83.97 448.29 147.59 449.97 169.79C450.13 171.99 449.67 174.18 448.63 176.12C435.86 199.95 399.18 268.43 386.42 292.25C385.4 294.16 385.34 296.43 386.26 298.39C391.01 308.53 402.89 333.87 421.89 374.4L343.48 477.61L310.77 489.65Z" id="aPrFassm7"></path><path d="M323.37 106.75C323.37 126.11 309.57 141.83 292.57 141.83C275.56 141.83 261.76 126.11 261.76 106.75C261.76 87.38 275.56 71.66 292.57 71.66C309.57 71.66 323.37 87.38 323.37 106.75Z" id="a2T00amq2s"></path><path d="M416.72 106.75C416.72 126.11 402.92 141.83 385.92 141.83C368.92 141.83 355.11 126.11 355.11 106.75C355.11 87.38 368.92 71.66 385.92 71.66C402.92 71.66 416.72 87.38 416.72 106.75Z" id="d21RQCX3Go"></path><path d="" id="hkTgM4YQi"></path></defs><g><g><g><use xlink:href="#cUqrWe4Gx" opacity="1" fill="#dedede" fill-opacity="1"></use></g><g><use xlink:href="#aPrFassm7" opacity="1" fill="#ffffff" fill-opacity="1"></use></g><g><use xlink:href="#a2T00amq2s" opacity="1" fill="#000000" fill-opacity="1"></use></g><g><use xlink:href="#d21RQCX3Go" opacity="1" fill="#000000" fill-opacity="1"></use></g><g><g><use xlink:href="#hkTgM4YQi" opacity="1" fill-opacity="0" stroke="#000000" stroke-width="1" stroke-opacity="1"></use></g></g></g></g></svg>